<svg xmlns="http://www.w3.org/2000/svg" viewBox="9 2 169.71 169.71" role="img" aria-label="Quenora"><defs><radialGradient id="qb" cx="0.5" cy="0.5" r="0.53" fx="0.32" fy="0.29"><stop offset="0" stop-color="#F7DCC2"/><stop offset="0.18" stop-color="#E9A063"/><stop offset="0.50" stop-color="#C97A3C"/><stop offset="0.85" stop-color="#A55F2A"/><stop offset="1" stop-color="#7E4620"/></radialGradient><radialGradient id="qr" cx="0.5" cy="0.5" r="0.52" fx="0.76" fy="0.79"><stop offset="0" stop-color="#F2CDA4" stop-opacity="0.42"/><stop offset="0.5" stop-color="#F2CDA4" stop-opacity="0.06"/><stop offset="1" stop-color="#F2CDA4" stop-opacity="0"/></radialGradient><radialGradient id="qh" cx="0.5" cy="0.5" r="0.5"><stop offset="0" stop-color="#FFFFFF" stop-opacity="0.92"/><stop offset="1" stop-color="#FFFFFF" stop-opacity="0"/></radialGradient></defs><circle cx="12" cy="161.71" r="3" fill="url(#qb)"/><circle cx="12" cy="161.71" r="3" fill="url(#qr)"/><ellipse cx="11.01" cy="160.51" rx="0.78" ry="0.51" transform="rotate(-31.5 11.01 160.51)" fill="url(#qh)"/><circle cx="21.64" cy="161.34" r="3.95" fill="url(#qb)"/><circle cx="21.64" cy="161.34" r="3.95" fill="url(#qr)"/><ellipse cx="20.34" cy="159.76" rx="1.03" ry="0.67" transform="rotate(-31.5 20.34 159.76)" fill="url(#qh)"/><circle cx="33.39" cy="159.88" r="5.2" fill="url(#qb)"/><circle cx="33.39" cy="159.88" r="5.2" fill="url(#qr)"/><ellipse cx="31.67" cy="157.79" rx="1.35" ry="0.88" transform="rotate(-31.5 31.67 157.79)" fill="url(#qh)"/><circle cx="47.73" cy="156.52" r="6.84" fill="url(#qb)"/><circle cx="47.73" cy="156.52" r="6.84" fill="url(#qr)"/><ellipse cx="45.47" cy="153.78" rx="1.78" ry="1.16" transform="rotate(-31.5 45.47 153.78)" fill="url(#qh)"/><circle cx="65.05" cy="149.97" r="9" fill="url(#qb)"/><circle cx="65.05" cy="149.97" r="9" fill="url(#qr)"/><ellipse cx="62.08" cy="146.36" rx="2.34" ry="1.53" transform="rotate(-31.5 62.08 146.36)" fill="url(#qh)"/><circle cx="85.34" cy="138.1" r="11.84" fill="url(#qb)"/><circle cx="85.34" cy="138.1" r="11.84" fill="url(#qr)"/><ellipse cx="81.43" cy="133.35" rx="3.08" ry="2.01" transform="rotate(-31.5 81.43 133.35)" fill="url(#qh)"/><circle cx="107.49" cy="117.76" r="15.59" fill="url(#qb)"/><circle cx="107.49" cy="117.76" r="15.59" fill="url(#qr)"/><ellipse cx="102.35" cy="111.51" rx="4.05" ry="2.65" transform="rotate(-31.5 102.35 111.51)" fill="url(#qh)"/><circle cx="127.81" cy="84.89" r="20.52" fill="url(#qb)"/><circle cx="127.81" cy="84.89" r="20.52" fill="url(#qr)"/><ellipse cx="121.04" cy="76.66" rx="5.34" ry="3.49" transform="rotate(-31.5 121.04 76.66)" fill="url(#qh)"/><circle cx="151.71" cy="36" r="27" fill="url(#qb)"/><circle cx="151.71" cy="36" r="27" fill="url(#qr)"/><ellipse cx="142.80" cy="25.17" rx="7.02" ry="4.59" transform="rotate(-31.5 142.80 25.17)" fill="url(#qh)"/></svg>